<svg id="visual" viewBox="0 0 900 600" width="900" height="600" xmlns="http://www.w3.org/2000/svg" xmlns:xlink="http://www.w3.org/1999/xlink" version="1.1"><rect x="0" y="0" width="900" height="600" fill="#fff"></rect><path d="M0 412L21.5 412.3C43 412.7 86 413.3 128.8 415.7C171.7 418 214.3 422 257.2 433.2C300 444.3 343 462.7 385.8 460.7C428.7 458.7 471.3 436.3 514.2 435.5C557 434.7 600 455.3 642.8 465.8C685.7 476.3 728.3 476.7 771.2 473.7C814 470.7 857 464.3 878.5 461.2L900 458L900 601L878.5 601C857 601 814 601 771.2 601C728.3 601 685.7 601 642.8 601C600 601 557 601 514.2 601C471.3 601 428.7 601 385.8 601C343 601 300 601 257.2 601C214.3 601 171.7 601 128.8 601C86 601 43 601 21.5 601L0 601Z" fill="#fff700" stroke-linecap="round" stroke-linejoin="miter"></path></svg>